{"title":"The Trial-AC3-XviD-DVDRip[Eng]2010 TBS","uid":6005348,"size":1177425756,"categoryP":"video","categoryS":"movies","magnet":"?xt=urn:btih:c81a3cbd3f69da66fb28b218d185c30822926249&amp;dn=The+Trial-AC3-XviD-DVDRip%5BEng%5D2010+TBS&amp;tr=udp%3A%2F%2Ftracker.openbittorrent.com%3A80&amp;tr=udp%3A%2F%2Fopen.demonii.com%3A1337&amp;tr=udp%3A%2F%2Ftracker.coppersurfer.tk%3A6969&amp;tr=udp%3A%2F%2Fexodus.desync.com%3A6969","seeders":0,"leechers":1,"uploader":"FatFreddy30","files":-1,"time":1291304218,"description":"After the horrific death of his wife and two sons, suicide seems to be the only escape for small town attorney Kent &quot;Mac&quot; McClain... until he's assigned a capital punishment case that begins to transform his life and those around him forever. \n &lt;a href=&quot;\nhttp://www.imdb.com/title/tt1264115/&quot; rel=&quot;nofollow&quot; target=&quot;_NEW&quot;&gt;\nhttp://www.imdb.com/title/tt1264115/&lt;/a&gt;\n\nSubtitles (srt) : Dutch, English.\n\nCovers included.\n\nNa de gruwelijke dood van zijn vrouw en twee zonen lijkt zelfmoord de enige uitweg voor de advocaat Kent &quot;Mac&quot; McClain (Matthew Modine). Tot hij een grote strafzaak toegewezen krijgt die zijn leven en dat van de mensen om hem heen voor altijd zal veranderen.\n &lt;a href=&quot;\nhttp://www.moviemeter.nl/film/71007&quot; rel=&quot;nofollow&quot; target=&quot;_NEW&quot;&gt;\nhttp://www.moviemeter.nl/film/71007&lt;/a&gt;\n\nOndertitels (srt) : Engels, Nederlands.\n\nHoesjes bijgevoegd.\n\nGeneral\nComplete name                    : The Trial-AC3-XviD-DVDRip[Eng]2010 \\The Trial-AC3-XviD-DVDRip[Eng]2010.avi\nFormat                           : AVI\nFormat/Info                      : Audio Video Interleave\nFile size                        : 1.10 GiB\nDuration                         : 1h 40mn\nOverall bit rate                 : 1 558 Kbps\nWriting application              : VirtualDubMod 1.5.4.1 (build 2178/release)\nWriting library                  : VirtualDubMod build 2178/release\nSource                           : The Trial COMPLETE (2010) NTSC DVDR-KART3LDVD\n\nVideo\nID                               : 0\nFormat                           : MPEG-4 Visual\nFormat profile                   : Simple@L3\nFormat settings, BVOP            : No\nFormat settings, QPel            : No\nFormat settings, GMC             : No warppoints\nFormat settings, Matrix          : Default (H.263)\nCodec ID                         : XVID\nCodec ID/Hint                    : XviD\nDuration                         : 1h 40mn\nBit rate                         : 1 100 Kbps\nWidth                            : 720 pixels\nHeight                           : 400 pixels\nDisplay aspect ratio             : 16:9\nFrame rate                       : 23.976 fps\nResolution                       : 8 bits\nColorimetry                      : 4:2:0\nScan type                        : Progressive\nBits/(Pixel*Frame)               : 0.159\nStream size                      : 793 MiB (71%)\nWriting library                  : XviD 1.1.2 (UTC 2006-11-01)\n\nAudio\nID                               : 1\nFormat                           : AC-3\nFormat/Info                      : Audio Coding 3\nCodec ID                         : 2000\nDuration                         : 1h 40mn\nBit rate mode                    : Constant\nBit rate                         : 448 Kbps\nChannel(s)                       : 6 channels\nChannel positions                : Front: L C R, Surround: L R, LFE\nSampling rate                    : 48.0 KHz\nStream size                      : 323 MiB (29%)\nAlignment                        : Split accross interleaves\nInterleave, duration             : 42 ms (1.00 video frame)\nInterleave, preload duration     : 500 ms\n\nThanks to FGT-Releases for the source, and Dutch subs..Nice job peeps!\n\nBlackbeard  TBS","torrent":{"xt":"urn:btih:c81a3cbd3f69da66fb28b218d185c30822926249","amp;dn":"The+Trial-AC3-XviD-DVDRip%5BEng%5D2010+TBS","amp;tr":["udp%3A%2F%2Ftracker.openbittorrent.com%3A80","udp%3A%2F%2Fopen.demonii.com%3A1337","udp%3A%2F%2Ftracker.coppersurfer.tk%3A6969","udp%3A%2F%2Fexodus.desync.com%3A6969"],"infoHash":"c81a3cbd3f69da66fb28b218d185c30822926249","infoHashBuffer":{"type":"Buffer","data":[200,26,60,189,63,105,218,102,251,40,178,24,209,133,195,8,34,146,98,73]},"announce":[],"urlList":[]}}